<?xml version="1.0" encoding="UTF-8" standalone="no"?>
<!DOCTYPE svg PUBLIC "-//W3C//DTD SVG 1.1//EN"
 "http://www.w3.org/Graphics/SVG/1.1/DTD/svg11.dtd">
<!-- Generated by graphviz version 2.40.1 (20161225.0304)
 -->
<!-- Title: dependencies Pages: 1 -->
<svg width="1165pt" height="211pt"
 viewBox="0.00 0.00 1165.00 211.00" xmlns="http://www.w3.org/2000/svg" xmlns:xlink="http://www.w3.org/1999/xlink">
<g id="graph0" class="graph" transform="scale(1 1) rotate(0) translate(4 207)">
<title>dependencies</title>
<polygon fill="#ffffff" stroke="transparent" points="-4,4 -4,-207 1161,-207 1161,4 -4,4"/>
<text text-anchor="start" x="557.5091" y="-42.4" font-family="sans-serif" font-weight="bold" font-size="14.00" fill="#000000">Legend</text>
<polygon fill="#ffffb3" stroke="transparent" points="344.5,-10 344.5,-30 364.5,-30 364.5,-10 344.5,-10"/>
<text text-anchor="start" x="368.129" y="-15.4" font-family="sans-serif" font-size="14.00" fill="#000000"> &#160;Declarations</text>
<polygon fill="#8dd3c7" stroke="transparent" points="457.5,-10 457.5,-30 477.5,-30 477.5,-10 457.5,-10"/>
<text text-anchor="start" x="481.2251" y="-15.4" font-family="sans-serif" font-size="14.00" fill="#000000"> &#160;Module</text>
<polygon fill="#80b1d3" stroke="transparent" points="543.5,-10 543.5,-30 563.5,-30 563.5,-10 543.5,-10"/>
<text text-anchor="start" x="567.2812" y="-15.4" font-family="sans-serif" font-size="14.00" fill="#000000"> &#160;Bootstrap</text>
<polygon fill="#fdb462" stroke="transparent" points="640.5,-10 640.5,-30 660.5,-30 660.5,-10 640.5,-10"/>
<text text-anchor="start" x="664.1732" y="-15.4" font-family="sans-serif" font-size="14.00" fill="#000000"> &#160;Providers</text>
<polygon fill="#fb8072" stroke="transparent" points="736.5,-10 736.5,-30 756.5,-30 756.5,-10 736.5,-10"/>
<text text-anchor="start" x="760.2258" y="-15.4" font-family="sans-serif" font-size="14.00" fill="#000000"> &#160;Exports</text>
<g id="clust1" class="cluster">
<title>cluster_AdminLayoutModule</title>
<polygon fill="none" stroke="#000000" stroke-dasharray="1,5" points="8,-70 8,-195 1149,-195 1149,-70 8,-70"/>
</g>
<g id="clust2" class="cluster">
<title>cluster_AdminLayoutModule_declarations</title>
<polygon fill="none" stroke="#000000" points="304,-78 304,-130 1141,-130 1141,-78 304,-78"/>
</g>
<g id="clust11" class="cluster">
<title>cluster_AdminLayoutModule_providers</title>
<polygon fill="none" stroke="#000000" points="16,-78 16,-130 296,-130 296,-78 16,-78"/>
</g>
<!-- MovieCreateComponent -->
<g id="node1" class="node">
<title>MovieCreateComponent</title>
<polygon fill="#ffffb3" stroke="#000000" points="1133.4144,-122 978.5856,-122 978.5856,-86 1133.4144,-86 1133.4144,-122"/>
<text text-anchor="middle" x="1056" y="-99.8" font-family="Times,serif" font-size="14.00" fill="#000000">MovieCreateComponent</text>
</g>
<!-- AdminLayoutModule -->
<g id="node6" class="node">
<title>AdminLayoutModule</title>
<polygon fill="#8dd3c7" stroke="#000000" points="624.0954,-187 621.0954,-191 600.0954,-191 597.0954,-187 485.9046,-187 485.9046,-151 624.0954,-151 624.0954,-187"/>
<text text-anchor="middle" x="555" y="-164.8" font-family="Times,serif" font-size="14.00" fill="#000000">AdminLayoutModule</text>
</g>
<!-- MovieCreateComponent&#45;&gt;AdminLayoutModule -->
<g id="edge1" class="edge">
<title>MovieCreateComponent&#45;&gt;AdminLayoutModule</title>
<path fill="none" stroke="#000000" d="M1056,-122.2921C1056,-144.2057 1056,-178 1056,-178 1056,-178 634.1359,-178 634.1359,-178"/>
<polygon fill="#000000" stroke="#000000" points="634.1359,-174.5001 624.1359,-178 634.1359,-181.5001 634.1359,-174.5001"/>
</g>
<!-- MovieDeleteComponent -->
<g id="node2" class="node">
<title>MovieDeleteComponent</title>
<polygon fill="#ffffb3" stroke="#000000" points="961.4144,-122 806.5856,-122 806.5856,-86 961.4144,-86 961.4144,-122"/>
<text text-anchor="middle" x="884" y="-99.8" font-family="Times,serif" font-size="14.00" fill="#000000">MovieDeleteComponent</text>
</g>
<!-- MovieDeleteComponent&#45;&gt;AdminLayoutModule -->
<g id="edge2" class="edge">
<title>MovieDeleteComponent&#45;&gt;AdminLayoutModule</title>
<path fill="none" stroke="#000000" d="M884,-122.1061C884,-141.3391 884,-169 884,-169 884,-169 634.3704,-169 634.3704,-169"/>
<polygon fill="#000000" stroke="#000000" points="634.3705,-165.5001 624.3704,-169 634.3704,-172.5001 634.3705,-165.5001"/>
</g>
<!-- MovieEditComponent -->
<g id="node3" class="node">
<title>MovieEditComponent</title>
<polygon fill="#ffffb3" stroke="#000000" points="788.7162,-122 647.2838,-122 647.2838,-86 788.7162,-86 788.7162,-122"/>
<text text-anchor="middle" x="718" y="-99.8" font-family="Times,serif" font-size="14.00" fill="#000000">MovieEditComponent</text>
</g>
<!-- MovieEditComponent&#45;&gt;AdminLayoutModule -->
<g id="edge3" class="edge">
<title>MovieEditComponent&#45;&gt;AdminLayoutModule</title>
<path fill="none" stroke="#000000" d="M718,-122.027C718,-138.3976 718,-160 718,-160 718,-160 634.1267,-160 634.1267,-160"/>
<polygon fill="#000000" stroke="#000000" points="634.1267,-156.5001 624.1267,-160 634.1266,-163.5001 634.1267,-156.5001"/>
</g>
<!-- MovieIndexComponent -->
<g id="node4" class="node">
<title>MovieIndexComponent</title>
<polygon fill="#ffffb3" stroke="#000000" points="629.7576,-122 480.2424,-122 480.2424,-86 629.7576,-86 629.7576,-122"/>
<text text-anchor="middle" x="555" y="-99.8" font-family="Times,serif" font-size="14.00" fill="#000000">MovieIndexComponent</text>
</g>
<!-- MovieIndexComponent&#45;&gt;AdminLayoutModule -->
<g id="edge4" class="edge">
<title>MovieIndexComponent&#45;&gt;AdminLayoutModule</title>
<path fill="none" stroke="#000000" d="M555,-122.1061C555,-122.1061 555,-140.991 555,-140.991"/>
<polygon fill="#000000" stroke="#000000" points="551.5001,-140.9909 555,-150.991 558.5001,-140.991 551.5001,-140.9909"/>
</g>
<!-- MovieShowComponent -->
<g id="node5" class="node">
<title>MovieShowComponent</title>
<polygon fill="#ffffb3" stroke="#000000" points="461.7716,-122 312.2284,-122 312.2284,-86 461.7716,-86 461.7716,-122"/>
<text text-anchor="middle" x="387" y="-99.8" font-family="Times,serif" font-size="14.00" fill="#000000">MovieShowComponent</text>
</g>
<!-- MovieShowComponent&#45;&gt;AdminLayoutModule -->
<g id="edge5" class="edge">
<title>MovieShowComponent&#45;&gt;AdminLayoutModule</title>
<path fill="none" stroke="#000000" d="M387,-122.027C387,-138.3976 387,-160 387,-160 387,-160 475.698,-160 475.698,-160"/>
<polygon fill="#000000" stroke="#000000" points="475.6981,-163.5001 485.698,-160 475.698,-156.5001 475.6981,-163.5001"/>
</g>
<!-- MovieService -->
<g id="node7" class="node">
<title>MovieService</title>
<ellipse fill="#fdb462" stroke="#000000" cx="223" cy="-104" rx="65.4072" ry="18"/>
<text text-anchor="middle" x="223" y="-99.8" font-family="Times,serif" font-size="14.00" fill="#000000">MovieService</text>
</g>
<!-- MovieService&#45;&gt;AdminLayoutModule -->
<g id="edge6" class="edge">
<title>MovieService&#45;&gt;AdminLayoutModule</title>
<path fill="none" stroke="#000000" d="M223,-122.1061C223,-141.3391 223,-169 223,-169 223,-169 475.806,-169 475.806,-169"/>
<polygon fill="#000000" stroke="#000000" points="475.8061,-172.5001 485.806,-169 475.806,-165.5001 475.8061,-172.5001"/>
</g>
<!-- Notification -->
<g id="node8" class="node">
<title>Notification</title>
<ellipse fill="#fdb462" stroke="#000000" cx="82" cy="-104" rx="57.9004" ry="18"/>
<text text-anchor="middle" x="82" y="-99.8" font-family="Times,serif" font-size="14.00" fill="#000000">Notification</text>
</g>
<!-- Notification&#45;&gt;AdminLayoutModule -->
<g id="edge7" class="edge">
<title>Notification&#45;&gt;AdminLayoutModule</title>
<path fill="none" stroke="#000000" d="M82,-122.2921C82,-144.2057 82,-178 82,-178 82,-178 475.7152,-178 475.7152,-178"/>
<polygon fill="#000000" stroke="#000000" points="475.7152,-181.5001 485.7152,-178 475.7151,-174.5001 475.7152,-181.5001"/>
</g>
</g>
</svg>
