<?xml version="1.0" encoding="UTF-8" standalone="no"?>
<!DOCTYPE svg PUBLIC "-//W3C//DTD SVG 1.1//EN"
 "http://www.w3.org/Graphics/SVG/1.1/DTD/svg11.dtd">
<!-- Generated by graphviz version 2.40.1 (20161225.0304)
 -->
<!-- Title: dependencies Pages: 1 -->
<svg width="1478pt" height="284pt"
 viewBox="0.00 0.00 1478.00 284.00" xmlns="http://www.w3.org/2000/svg" xmlns:xlink="http://www.w3.org/1999/xlink">
<g id="graph0" class="graph" transform="scale(1 1) rotate(0) translate(4 280)">
<title>dependencies</title>
<polygon fill="#ffffff" stroke="transparent" points="-4,4 -4,-280 1474,-280 1474,4 -4,4"/>
<text text-anchor="start" x="714.0091" y="-42.4" font-family="sans-serif" font-weight="bold" font-size="14.00" fill="#000000">Legend</text>
<polygon fill="#ffffb3" stroke="transparent" points="501,-10 501,-30 521,-30 521,-10 501,-10"/>
<text text-anchor="start" x="524.629" y="-15.4" font-family="sans-serif" font-size="14.00" fill="#000000"> &#160;Declarations</text>
<polygon fill="#8dd3c7" stroke="transparent" points="614,-10 614,-30 634,-30 634,-10 614,-10"/>
<text text-anchor="start" x="637.7251" y="-15.4" font-family="sans-serif" font-size="14.00" fill="#000000"> &#160;Module</text>
<polygon fill="#80b1d3" stroke="transparent" points="700,-10 700,-30 720,-30 720,-10 700,-10"/>
<text text-anchor="start" x="723.7812" y="-15.4" font-family="sans-serif" font-size="14.00" fill="#000000"> &#160;Bootstrap</text>
<polygon fill="#fdb462" stroke="transparent" points="797,-10 797,-30 817,-30 817,-10 797,-10"/>
<text text-anchor="start" x="820.6732" y="-15.4" font-family="sans-serif" font-size="14.00" fill="#000000"> &#160;Providers</text>
<polygon fill="#fb8072" stroke="transparent" points="893,-10 893,-30 913,-30 913,-10 893,-10"/>
<text text-anchor="start" x="916.7258" y="-15.4" font-family="sans-serif" font-size="14.00" fill="#000000"> &#160;Exports</text>
<g id="clust1" class="cluster">
<title>cluster_AppModule</title>
<polygon fill="none" stroke="#000000" stroke-dasharray="1,5" points="8,-70 8,-268 1462,-268 1462,-70 8,-70"/>
</g>
<g id="clust2" class="cluster">
<title>cluster_AppModule_declarations</title>
<polygon fill="none" stroke="#000000" points="705,-78 705,-130 1454,-130 1454,-78 705,-78"/>
</g>
<g id="clust8" class="cluster">
<title>cluster_AppModule_imports</title>
<polygon fill="none" stroke="#000000" points="553,-78 553,-130 697,-130 697,-78 553,-78"/>
</g>
<g id="clust10" class="cluster">
<title>cluster_AppModule_bootstrap</title>
<polygon fill="none" stroke="#000000" points="713,-208 713,-260 837,-260 837,-208 713,-208"/>
</g>
<g id="clust11" class="cluster">
<title>cluster_AppModule_providers</title>
<polygon fill="none" stroke="#000000" points="16,-78 16,-130 545,-130 545,-78 16,-78"/>
</g>
<!-- AdminLayoutComponent -->
<g id="node1" class="node">
<title>AdminLayoutComponent</title>
<polygon fill="#ffffb3" stroke="#000000" points="1445.878,-122 1286.122,-122 1286.122,-86 1445.878,-86 1445.878,-122"/>
<text text-anchor="middle" x="1366" y="-99.8" font-family="Times,serif" font-size="14.00" fill="#000000">AdminLayoutComponent</text>
</g>
<!-- AppModule -->
<g id="node6" class="node">
<title>AppModule</title>
<polygon fill="#8dd3c7" stroke="#000000" points="816.6571,-187 813.6571,-191 792.6571,-191 789.6571,-187 733.3429,-187 733.3429,-151 816.6571,-151 816.6571,-187"/>
<text text-anchor="middle" x="775" y="-164.8" font-family="Times,serif" font-size="14.00" fill="#000000">AppModule</text>
</g>
<!-- AdminLayoutComponent&#45;&gt;AppModule -->
<g id="edge1" class="edge">
<title>AdminLayoutComponent&#45;&gt;AppModule</title>
<path fill="none" stroke="#000000" d="M1366,-122.0109C1366,-144.4852 1366,-180 1366,-180 1366,-180 827.0295,-180 827.0295,-180"/>
<polygon fill="#000000" stroke="#000000" points="827.0295,-176.5001 817.0295,-180 827.0294,-183.5001 827.0295,-176.5001"/>
</g>
<!-- AppComponent -->
<g id="node2" class="node">
<title>AppComponent</title>
<polygon fill="#ffffb3" stroke="#000000" points="1267.9399,-122 1162.0601,-122 1162.0601,-86 1267.9399,-86 1267.9399,-122"/>
<text text-anchor="middle" x="1215" y="-99.8" font-family="Times,serif" font-size="14.00" fill="#000000">AppComponent</text>
</g>
<!-- AppComponent&#45;&gt;AppModule -->
<g id="edge2" class="edge">
<title>AppComponent&#45;&gt;AppModule</title>
<path fill="none" stroke="#000000" d="M1215,-122.1289C1215,-142.5724 1215,-173 1215,-173 1215,-173 826.7908,-173 826.7908,-173"/>
<polygon fill="#000000" stroke="#000000" points="826.7908,-169.5001 816.7908,-173 826.7908,-176.5001 826.7908,-169.5001"/>
</g>
<!-- AuthLayoutComponent -->
<g id="node3" class="node">
<title>AuthLayoutComponent</title>
<polygon fill="#ffffb3" stroke="#000000" points="1144.4874,-122 995.5126,-122 995.5126,-86 1144.4874,-86 1144.4874,-122"/>
<text text-anchor="middle" x="1070" y="-99.8" font-family="Times,serif" font-size="14.00" fill="#000000">AuthLayoutComponent</text>
</g>
<!-- AuthLayoutComponent&#45;&gt;AppModule -->
<g id="edge3" class="edge">
<title>AuthLayoutComponent&#45;&gt;AppModule</title>
<path fill="none" stroke="#000000" d="M1070,-122.2667C1070,-140.5552 1070,-166 1070,-166 1070,-166 826.953,-166 826.953,-166"/>
<polygon fill="#000000" stroke="#000000" points="826.9531,-162.5001 816.953,-166 826.953,-169.5001 826.9531,-162.5001"/>
</g>
<!-- NavbarComponent -->
<g id="node4" class="node">
<title>NavbarComponent</title>
<polygon fill="#ffffb3" stroke="#000000" points="977.0297,-122 854.9703,-122 854.9703,-86 977.0297,-86 977.0297,-122"/>
<text text-anchor="middle" x="916" y="-99.8" font-family="Times,serif" font-size="14.00" fill="#000000">NavbarComponent</text>
</g>
<!-- NavbarComponent&#45;&gt;AppModule -->
<g id="edge4" class="edge">
<title>NavbarComponent&#45;&gt;AppModule</title>
<path fill="none" stroke="#000000" d="M916,-122.0091C916,-138.0494 916,-159 916,-159 916,-159 826.9229,-159 826.9229,-159"/>
<polygon fill="#000000" stroke="#000000" points="826.9229,-155.5001 816.9229,-159 826.9229,-162.5001 826.9229,-155.5001"/>
</g>
<!-- SidebarComponent -->
<g id="node5" class="node">
<title>SidebarComponent</title>
<polygon fill="#ffffb3" stroke="#000000" points="837.0954,-122 712.9046,-122 712.9046,-86 837.0954,-86 837.0954,-122"/>
<text text-anchor="middle" x="775" y="-99.8" font-family="Times,serif" font-size="14.00" fill="#000000">SidebarComponent</text>
</g>
<!-- SidebarComponent&#45;&gt;AppModule -->
<g id="edge5" class="edge">
<title>SidebarComponent&#45;&gt;AppModule</title>
<path fill="none" stroke="#000000" d="M775,-122.1061C775,-122.1061 775,-140.991 775,-140.991"/>
<polygon fill="#000000" stroke="#000000" points="771.5001,-140.9909 775,-150.991 778.5001,-140.991 771.5001,-140.9909"/>
</g>
<!-- AppComponent  -->
<g id="node8" class="node">
<title>AppComponent </title>
<polygon fill="#80b1d3" stroke="#000000" points="829.439,-252 720.561,-252 720.561,-216 829.439,-216 829.439,-252"/>
<text text-anchor="middle" x="775" y="-229.8" font-family="Times,serif" font-size="14.00" fill="#000000">AppComponent </text>
</g>
<!-- AppModule&#45;&gt;AppComponent  -->
<g id="edge7" class="edge">
<title>AppModule&#45;&gt;AppComponent </title>
<path fill="none" stroke="#000000" stroke-dasharray="1,5" d="M775,-187.1061C775,-187.1061 775,-205.991 775,-205.991"/>
<polygon fill="#000000" stroke="#000000" points="771.5001,-205.9909 775,-215.991 778.5001,-205.991 771.5001,-205.9909"/>
</g>
<!-- AppRoutingModule -->
<g id="node7" class="node">
<title>AppRoutingModule</title>
<polygon fill="#8dd3c7" stroke="#000000" points="689.2744,-122 686.2744,-126 665.2744,-126 662.2744,-122 560.7256,-122 560.7256,-86 689.2744,-86 689.2744,-122"/>
<text text-anchor="middle" x="625" y="-99.8" font-family="Times,serif" font-size="14.00" fill="#000000">AppRoutingModule</text>
</g>
<!-- AppRoutingModule&#45;&gt;AppModule -->
<g id="edge6" class="edge">
<title>AppRoutingModule&#45;&gt;AppModule</title>
<path fill="none" stroke="#000000" d="M625,-122.0091C625,-138.0494 625,-159 625,-159 625,-159 723.2166,-159 723.2166,-159"/>
<polygon fill="#000000" stroke="#000000" points="723.2167,-162.5001 733.2166,-159 723.2166,-155.5001 723.2167,-162.5001"/>
</g>
<!-- AuthGuardService -->
<g id="node9" class="node">
<title>AuthGuardService</title>
<ellipse fill="#fdb462" stroke="#000000" cx="454" cy="-104" rx="83.3674" ry="18"/>
<text text-anchor="middle" x="454" y="-99.8" font-family="Times,serif" font-size="14.00" fill="#000000">AuthGuardService</text>
</g>
<!-- AuthGuardService&#45;&gt;AppModule -->
<g id="edge8" class="edge">
<title>AuthGuardService&#45;&gt;AppModule</title>
<path fill="none" stroke="#000000" d="M454,-122.2667C454,-140.5552 454,-166 454,-166 454,-166 723.0349,-166 723.0349,-166"/>
<polygon fill="#000000" stroke="#000000" points="723.0349,-169.5001 733.0349,-166 723.0348,-162.5001 723.0349,-169.5001"/>
</g>
<!-- AuthenticationService -->
<g id="node10" class="node">
<title>AuthenticationService</title>
<ellipse fill="#fdb462" stroke="#000000" cx="255" cy="-104" rx="97.2683" ry="18"/>
<text text-anchor="middle" x="255" y="-99.8" font-family="Times,serif" font-size="14.00" fill="#000000">AuthenticationService</text>
</g>
<!-- AuthenticationService&#45;&gt;AppModule -->
<g id="edge9" class="edge">
<title>AuthenticationService&#45;&gt;AppModule</title>
<path fill="none" stroke="#000000" d="M255,-122.1289C255,-142.5724 255,-173 255,-173 255,-173 723.3252,-173 723.3252,-173"/>
<polygon fill="#000000" stroke="#000000" points="723.3253,-176.5001 733.3252,-173 723.3252,-169.5001 723.3253,-176.5001"/>
</g>
<!-- Notification -->
<g id="node11" class="node">
<title>Notification</title>
<ellipse fill="#fdb462" stroke="#000000" cx="82" cy="-104" rx="57.9004" ry="18"/>
<text text-anchor="middle" x="82" y="-99.8" font-family="Times,serif" font-size="14.00" fill="#000000">Notification</text>
</g>
<!-- Notification&#45;&gt;AppModule -->
<g id="edge10" class="edge">
<title>Notification&#45;&gt;AppModule</title>
<path fill="none" stroke="#000000" d="M82,-122.0109C82,-144.4852 82,-180 82,-180 82,-180 723.2104,-180 723.2104,-180"/>
<polygon fill="#000000" stroke="#000000" points="723.2104,-183.5001 733.2104,-180 723.2103,-176.5001 723.2104,-183.5001"/>
</g>
</g>
</svg>
